:SAMPLES-PER-SECOND 30
:FULLY-SPECIFIED
:DEGREES
235
root  -7.95911 34.9317 -29.7064 -170.388 65.2995 -179.158
RightUpLeg  -4.64361 -16.1843 -2.76089
RightLeg  -0.644161 3.08328 -0.23328
RightFoot  9.96874 0.00229589 0.614942
RightToes  -31.0371 -0.14968 -0.257711
Spine  -2.72948 -0.367843 -1.06963
Spine1  -5.20565 -1.02602 -0.873335
HEad  -76.727 -25.1538 10.4523
LeftShoulder1  -1.94126e-019 -3.10601e-018 -2.51263e-017
LeftArm  26.35 19.8553 -71.6489
LeftForeArm  51.97 -75.3218 -40.3471
LeftHand  -0.248968 -4.49438 3.21219
RightShoulder  -4.96962e-017 0 -2.36833e-017
RightArm  0.249988 2.6769 72.313
RightForeArm  -174.468 65.4725 160.054
RightHand  -0.353278 -1.80001 -11.2546
LeftUpLeg  -3.96948 10.3002 -2.29424
LeftLeg  3.51077 25.1648 -0.0731913
LeftFoot  2.00127 -0.0164868 1.09452
LeftToes  -6.88365 2.25955e-006 -3.67304e-008
236
root  -7.97402 34.9386 -29.6117 -170.482 65.4967 -178.983
RightUpLeg  -4.51354 -16.1652 -2.61339
RightLeg  -0.644803 3.27581 -0.247878
RightFoot  10.0808 0.00147011 0.648391
RightToes  -30.8562 -0.14708 -0.255229
Spine  -2.79183 -0.0181679 -1.17831
Spine1  -5.30689 -0.367656 -1.11314
HEad  -75.7561 -26.0936 9.75266
LeftShoulder1  -1.94126e-019 -3.10601e-018 -2.51263e-017
LeftArm  29.4787 16.0979 -72.6879
LeftForeArm  43.0735 -71.5865 -30.4626
LeftHand  -0.211996 -4.72593 2.72812
RightShoulder  -4.96962e-017 0 -2.36833e-017
RightArm  -1.96781 13.1437 73.5354
RightForeArm  177.496 73.4809 148.631
RightHand  -0.396742 -2.39801 -15.1364
LeftUpLeg  -3.85291 10.4025 -2.08608
LeftLeg  3.661 25.2784 -0.00936351
LeftFoot  2.10074 -0.0177755 1.14463
LeftToes  -7.12502 2.25955e-006 -3.67304e-008
237
root  -7.99355 34.9467 -29.5135 -170.56 65.8002 -178.754
RightUpLeg  -4.37917 -15.9739 -2.44319
RightLeg  -0.642969 3.37005 -0.25488
RightFoot  10.1991 0.00138182 0.66928
RightToes  -30.4307 -0.144261 -0.252495
Spine  -2.81441 0.302248 -1.33298
Spine1  -5.33676 0.251032 -1.45658
HEad  -74.7597 -26.6913 9.23863
LeftShoulder1  -1.94126e-019 -3.10601e-018 -2.51263e-017
LeftArm  32.6064 12.8624 -73.4054
LeftForeArm  40.1853 -68.4941 -25.004
LeftHand  -0.15332 -5.72682 1.92475
RightShoulder  -4.96962e-017 0 -2.36833e-017
RightArm  -2.77453 23.335 75.052
RightForeArm  124.477 81.3567 90.7978
RightHand  -0.472537 -2.37198 -17.9304
LeftUpLeg  -3.89563 10.5051 -1.8624
LeftLeg  4.24028 25.5003 0.239883
LeftFoot  2.02413 -0.0147507 1.11742
LeftToes  -7.18505 2.25955e-006 -3.67304e-008
238
root  -8.01484 34.9579 -29.4184 -170.717 66.1913 -178.541
RightUpLeg  -4.19786 -15.6759 -2.3121
RightLeg  -0.619484 3.45471 -0.259833
RightFoot  10.2752 0.00124078 0.688925
RightToes  -29.8895 -0.141689 -0.24989
Spine  -2.81571 0.608217 -1.4797
Spine1  -5.3319 0.858166 -1.77891
HEad  -73.7185 -27.1334 8.72471
LeftShoulder1  -1.94126e-019 -3.10601e-018 -2.51263e-017
LeftArm  34.6602 10.4661 -74.3282
LeftForeArm  37.6028 -65.8836 -21.755
LeftHand  -0.0845058 -6.56006 1.16554
RightShoulder  -4.96962e-017 0 -2.36833e-017
RightArm  -2.08115 33.1158 77.3089
RightForeArm  62.4311 70.1938 24.3125
RightHand  -0.557043 -1.9849 -18.7977
LeftUpLeg  -3.90102 10.5465 -1.64773
LeftLeg  4.90734 25.8565 0.533907
LeftFoot  1.96585 -0.0132111 1.10484
LeftToes  -7.30158 2.25955e-006 -3.67304e-008
239
root  -8.03139 34.9702 -29.3312 -170.893 66.5978 -178.374
RightUpLeg  -3.99672 -15.4097 -2.2144
RightLeg  -0.647151 3.61837 -0.273869
RightFoot  10.3234 5.965e-005 0.721458
RightToes  -29.4028 -0.13983 -0.247794
Spine  -2.83916 0.999278 -1.64015
Spine1  -5.37279 1.6356 -2.12667
HEad  -72.6272 -27.8306 8.31155
LeftShoulder1  -1.94126e-019 -3.10601e-018 -2.51263e-017
LeftArm  36.3306 8.83158 -75.1307
LeftForeArm  36.6248 -64.7389 -20.5619
LeftHand  0.0181269 -7.03596 0.187048
RightShoulder  -4.96962e-017 0 -2.36833e-017
RightArm  -0.557071 41.6886 80.2964
RightForeArm  53.3932 51.789 10.2348
RightHand  -0.595794 -1.1823 -16.3531
LeftUpLeg  -3.85989 10.5707 -1.46761
LeftLeg  5.45218 26.2544 0.782634
LeftFoot  2.02199 -0.0158071 1.14991
LeftToes  -7.82148 2.25955e-006 -3.67304e-008
240
root  -8.04004 34.9789 -29.2488 -170.971 66.7934 -178.217
RightUpLeg  -3.86821 -15.317 -2.09122
RightLeg  -0.647979 3.73397 -0.282645
RightFoot  10.4128 -0.000756105 0.746833
RightToes  -29.6207 -0.138665 -0.246355
Spine  -2.87982 1.47494 -1.86603
Spine1  -5.44126 2.56847 -2.5962
HEad  -71.9876 -28.9721 8.08324
LeftShoulder1  -1.94126e-019 -3.10601e-018 -2.51263e-017
LeftArm  37.8351 7.7369 -75.5571
LeftForeArm  38.3523 -65.5146 -21.2241
LeftHand  0.0615302 -7.47136 -0.189197
RightShoulder  -4.96962e-017 0 -2.36833e-017
RightArm  0.887554 47.9908 82.8848
RightForeArm  51.1773 35.9028 5.39532
RightHand  -0.374848 -1.62748 -11.4262
LeftUpLeg  -3.91808 10.6902 -1.27836
LeftLeg  5.96515 26.3285 1.01236
LeftFoot  1.96853 -0.0144143 1.1282
LeftToes  -7.74923 2.25955e-006 -3.67304e-008
